<svg width="615" height="517" viewBox="0 0 615 517" fill="none" xmlns="http://www.w3.org/2000/svg">
<ellipse cx="371.504" cy="56.4531" rx="58.1135" ry="56.4531" fill="#0081CC"/>
<ellipse cx="371.502" cy="52.1031" rx="44.8304" ry="35.6983" fill="#1A1A1A"/>
<ellipse cx="360.122" cy="35.5901" rx="32.8121" ry="17.4341" transform="rotate(-19.729 360.122 35.5901)" fill="#989898" fill-opacity="0.1"/>
<ellipse cx="361.027" cy="34.0085" rx="27.3882" ry="10.6434" transform="rotate(-19.729 361.027 34.0085)" fill="#989898" fill-opacity="0.05"/>
<path d="M362.679 169.87C362.679 164.368 358.219 159.907 352.717 159.907H334.788V239.196C334.788 244.698 339.249 249.158 344.751 249.158H352.717C358.219 249.158 362.679 244.698 362.679 239.196V169.87Z" fill="#0081CC"/>
<path d="M408.234 159.907H390.306C384.804 159.907 380.344 164.368 380.344 169.87V238.266C380.344 243.768 384.804 248.228 390.306 248.228H398.272C403.774 248.228 408.234 243.768 408.234 238.266V159.907Z" fill="#0081CC"/>
<rect x="334.788" y="111.563" width="73.4459" height="81.8131" rx="27.8908" fill="#0081CC"/>
<rect x="334.788" y="123.649" width="73.4459" height="71.5865" rx="35.7932" fill="#0081CC"/>
<rect width="24.0554" height="16.0369" rx="8.01845" transform="matrix(-1 0 0 1 406.375 235.213)" fill="#2A2E3C"/>
<rect width="24.0554" height="16.0369" rx="8.01845" transform="matrix(-1 0 0 1 360.82 235.213)" fill="#2A2E3C"/>
<rect width="43.6957" height="5.57817" rx="2.78908" transform="matrix(1 0 0 -1 348.734 113.423)" fill="white"/>
<mask id="mask0_70_27401" style="mask-type:alpha" maskUnits="userSpaceOnUse" x="296" y="114" width="76" height="57">
<path d="M326.307 150.952C333.92 136.956 385.835 124.861 368.467 118.166C348.987 103.311 314.99 131.235 298.718 153.923C294.648 159.597 297.571 167.106 304.076 169.648C309.715 171.852 316.114 169.529 319.026 164.22L326.307 150.952Z" fill="#66C7FF"/>
</mask>
<g mask="url(#mask0_70_27401)">
<path d="M326.307 150.952C333.92 136.956 385.835 124.861 368.467 118.166C348.987 103.311 314.99 131.235 298.718 153.923C294.648 159.597 297.571 167.106 304.076 169.648C309.715 171.852 316.114 169.529 319.026 164.22L326.307 150.952Z" fill="#0081CC"/>
<path d="M326.193 125.333L337.839 143.258C336.416 144.839 335.368 144.921 335.009 145.216L321.046 129.011C321.808 128.384 325.045 126.088 326.193 125.333Z" fill="white"/>
</g>
<rect width="18.4266" height="14.2526" rx="7.12631" transform="matrix(-0.890192 -0.455586 -0.455586 0.890192 317.563 161.47)" fill="#2A2E3C"/>
<mask id="mask1_70_27401" style="mask-type:alpha" maskUnits="userSpaceOnUse" x="378" y="111" width="62" height="63">
<path d="M410.823 154.378C403.621 140.68 370.396 114.638 379.666 114.576C398.247 99.9171 424.334 133.525 437.765 157.423C440.967 163.12 438.174 170.122 432.115 172.572C426.667 174.774 420.435 172.503 417.682 167.311L410.823 154.378Z" fill="#66C7FF"/>
</mask>
<g mask="url(#mask1_70_27401)">
<path d="M410.823 157.378C403.621 143.68 370.396 117.638 379.666 117.576C398.247 102.917 424.334 136.525 437.765 160.423C440.967 166.12 438.174 173.122 432.115 175.572C426.667 177.774 420.435 175.503 417.682 170.311L410.823 157.378Z" fill="#0081CC"/>
<path d="M399.347 143.329L415.834 129.589C417.546 131.434 417.66 131.758 417.978 132.066L403.36 147.818C402.686 147.165 400.179 144.339 399.347 143.329Z" fill="white"/>
</g>
<rect x="418.046" y="168.115" width="18.4266" height="14.2526" rx="7.12631" transform="rotate(-37.1004 418.046 168.115)" fill="#2A2E3C"/>
<ellipse cx="518.504" cy="56.4531" rx="58.1135" ry="56.4531" fill="#0081CC"/>
<ellipse cx="518.502" cy="52.1031" rx="44.8304" ry="35.6983" fill="#1A1A1A"/>
<ellipse cx="507.122" cy="35.5901" rx="32.8121" ry="17.4341" transform="rotate(-19.729 507.122 35.5901)" fill="#989898" fill-opacity="0.1"/>
<ellipse cx="508.027" cy="34.0085" rx="27.3882" ry="10.6434" transform="rotate(-19.729 508.027 34.0085)" fill="#989898" fill-opacity="0.05"/>
<path d="M509.679 169.87C509.679 164.368 505.219 159.907 499.717 159.907H481.788V239.196C481.788 244.698 486.249 249.158 491.751 249.158H499.717C505.219 249.158 509.679 244.698 509.679 239.196V169.87Z" fill="#0081CC"/>
<path d="M555.234 159.907H537.306C531.804 159.907 527.344 164.368 527.344 169.87V238.266C527.344 243.768 531.804 248.228 537.306 248.228H545.272C550.774 248.228 555.234 243.768 555.234 238.266V159.907Z" fill="#0081CC"/>
<rect x="481.788" y="111.563" width="73.4459" height="81.8131" rx="27.8908" fill="#0081CC"/>
<rect x="481.788" y="123.649" width="73.4459" height="71.5865" rx="35.7932" fill="#0081CC"/>
<rect width="24.0554" height="16.0369" rx="8.01845" transform="matrix(-1 0 0 1 553.375 235.213)" fill="#2A2E3C"/>
<rect width="24.0554" height="16.0369" rx="8.01845" transform="matrix(-1 0 0 1 507.82 235.213)" fill="#2A2E3C"/>
<rect width="43.6957" height="5.57817" rx="2.78908" transform="matrix(1 0 0 -1 495.734 113.423)" fill="white"/>
<mask id="mask2_70_27401" style="mask-type:alpha" maskUnits="userSpaceOnUse" x="443" y="114" width="76" height="57">
<path d="M473.307 150.952C480.92 136.956 532.835 124.861 515.467 118.166C495.987 103.311 461.99 131.235 445.718 153.923C441.648 159.597 444.571 167.106 451.076 169.648C456.715 171.852 463.114 169.529 466.026 164.22L473.307 150.952Z" fill="#66C7FF"/>
</mask>
<g mask="url(#mask2_70_27401)">
<path d="M473.307 150.952C480.92 136.956 532.835 124.861 515.467 118.166C495.987 103.311 461.99 131.235 445.718 153.923C441.648 159.597 444.571 167.106 451.076 169.648C456.715 171.852 463.114 169.529 466.026 164.22L473.307 150.952Z" fill="#0081CC"/>
<path d="M473.193 125.333L484.839 143.258C483.416 144.839 482.368 144.921 482.009 145.216L468.046 129.011C468.808 128.384 472.045 126.088 473.193 125.333Z" fill="white"/>
</g>
<rect width="18.4266" height="14.2526" rx="7.12631" transform="matrix(-0.890192 -0.455586 -0.455586 0.890192 464.563 161.47)" fill="#2A2E3C"/>
<mask id="mask3_70_27401" style="mask-type:alpha" maskUnits="userSpaceOnUse" x="525" y="111" width="62" height="63">
<path d="M557.823 154.378C550.621 140.68 517.396 114.638 526.666 114.576C545.247 99.9171 571.334 133.525 584.765 157.423C587.967 163.12 585.174 170.122 579.115 172.572C573.667 174.774 567.435 172.503 564.682 167.311L557.823 154.378Z" fill="#66C7FF"/>
</mask>
<g mask="url(#mask3_70_27401)">
<path d="M557.823 157.378C550.621 143.68 517.396 117.638 526.666 117.576C545.247 102.917 571.334 136.525 584.765 160.423C587.967 166.12 585.174 173.122 579.115 175.572C573.667 177.774 567.435 175.503 564.682 170.311L557.823 157.378Z" fill="#0081CC"/>
<path d="M546.347 143.329L562.834 129.589C564.546 131.434 564.66 131.758 564.978 132.066L550.36 147.818C549.686 147.165 547.179 144.339 546.347 143.329Z" fill="white"/>
</g>
<rect x="565.046" y="168.115" width="18.4266" height="14.2526" rx="7.12631" transform="rotate(-37.1004 565.046 168.115)" fill="#2A2E3C"/>
<ellipse cx="431.458" cy="196.453" rx="58.1135" ry="56.4531" fill="#33B4FF"/>
<ellipse cx="431.456" cy="192.103" rx="44.8304" ry="35.6983" fill="#1A1A1A"/>
<ellipse cx="420.076" cy="175.59" rx="32.8121" ry="17.4341" transform="rotate(-19.729 420.076 175.59)" fill="#989898" fill-opacity="0.1"/>
<ellipse cx="420.981" cy="174.009" rx="27.3882" ry="10.6434" transform="rotate(-19.729 420.981 174.009)" fill="#989898" fill-opacity="0.05"/>
<path d="M422.633 309.87C422.633 304.368 418.173 299.907 412.671 299.907H394.742V379.196C394.742 384.698 399.203 389.158 404.705 389.158H412.671C418.173 389.158 422.633 384.698 422.633 379.196V309.87Z" fill="#33B4FF"/>
<path d="M468.188 299.907H450.26C444.758 299.907 440.298 304.368 440.298 309.87V378.266C440.298 383.768 444.758 388.228 450.26 388.228H458.226C463.728 388.228 468.188 383.768 468.188 378.266V299.907Z" fill="#33B4FF"/>
<rect x="394.742" y="251.563" width="73.4459" height="81.8131" rx="27.8908" fill="#33B4FF"/>
<rect x="394.742" y="263.649" width="73.4459" height="71.5865" rx="35.7932" fill="#33B4FF"/>
<rect width="24.0554" height="16.0369" rx="8.01845" transform="matrix(-1 0 0 1 466.329 375.213)" fill="#2A2E3C"/>
<rect width="24.0554" height="16.0369" rx="8.01845" transform="matrix(-1 0 0 1 420.774 375.213)" fill="#2A2E3C"/>
<rect width="43.6957" height="5.57817" rx="2.78908" transform="matrix(1 0 0 -1 408.688 253.423)" fill="white"/>
<mask id="mask4_70_27401" style="mask-type:alpha" maskUnits="userSpaceOnUse" x="356" y="254" width="76" height="57">
<path d="M386.261 290.952C393.874 276.956 445.789 264.861 428.421 258.166C408.941 243.311 374.944 271.235 358.672 293.923C354.602 299.597 357.525 307.106 364.03 309.648C369.669 311.852 376.068 309.529 378.981 304.22L386.261 290.952Z" fill="#66C7FF"/>
</mask>
<g mask="url(#mask4_70_27401)">
<path d="M386.261 290.952C393.874 276.956 445.789 264.861 428.421 258.166C408.941 243.311 374.944 271.235 358.672 293.923C354.602 299.597 357.525 307.106 364.03 309.648C369.669 311.852 376.068 309.529 378.981 304.22L386.261 290.952Z" fill="#33B4FF"/>
<path d="M386.147 265.333L397.793 283.258C396.37 284.839 395.322 284.921 394.963 285.216L381 269.011C381.762 268.384 384.999 266.088 386.147 265.333Z" fill="white"/>
</g>
<rect width="18.4266" height="14.2526" rx="7.12631" transform="matrix(-0.890192 -0.455586 -0.455586 0.890192 377.518 301.47)" fill="#2A2E3C"/>
<mask id="mask5_70_27401" style="mask-type:alpha" maskUnits="userSpaceOnUse" x="438" y="251" width="62" height="63">
<path d="M470.777 294.378C463.575 280.68 430.35 254.638 439.62 254.576C458.201 239.917 484.288 273.525 497.719 297.423C500.921 303.12 498.128 310.122 492.069 312.572C486.621 314.774 480.389 312.503 477.636 307.311L470.777 294.378Z" fill="#66C7FF"/>
</mask>
<g mask="url(#mask5_70_27401)">
<path d="M470.777 297.378C463.575 283.68 430.35 257.638 439.62 257.576C458.201 242.917 484.288 276.525 497.719 300.423C500.921 306.12 498.128 313.122 492.069 315.572C486.621 317.774 480.389 315.503 477.636 310.311L470.777 297.378Z" fill="#33B4FF"/>
<path d="M459.302 283.329L475.788 269.589C477.5 271.434 477.614 271.758 477.932 272.066L463.314 287.818C462.64 287.165 460.133 284.339 459.302 283.329Z" fill="white"/>
</g>
<rect x="478" y="308.115" width="18.4266" height="14.2526" rx="7.12631" transform="rotate(-37.1004 478 308.115)" fill="#2A2E3C"/>
<ellipse cx="224.504" cy="56.4531" rx="58.1135" ry="56.4531" fill="#0081CC"/>
<ellipse cx="224.502" cy="52.1031" rx="44.8304" ry="35.6983" fill="#1A1A1A"/>
<ellipse cx="213.122" cy="35.5901" rx="32.8121" ry="17.4341" transform="rotate(-19.729 213.122 35.5901)" fill="#989898" fill-opacity="0.1"/>
<ellipse cx="214.027" cy="34.0085" rx="27.3882" ry="10.6434" transform="rotate(-19.729 214.027 34.0085)" fill="#989898" fill-opacity="0.05"/>
<path d="M215.679 169.87C215.679 164.368 211.219 159.907 205.717 159.907H187.788V239.196C187.788 244.698 192.249 249.158 197.751 249.158H205.717C211.219 249.158 215.679 244.698 215.679 239.196V169.87Z" fill="#0081CC"/>
<path d="M261.234 159.907H243.306C237.804 159.907 233.344 164.368 233.344 169.87V238.266C233.344 243.768 237.804 248.228 243.306 248.228H251.272C256.774 248.228 261.234 243.768 261.234 238.266V159.907Z" fill="#0081CC"/>
<rect x="187.788" y="111.563" width="73.4459" height="81.8131" rx="27.8908" fill="#0081CC"/>
<rect x="187.788" y="123.649" width="73.4459" height="71.5865" rx="35.7932" fill="#0081CC"/>
<rect width="24.0554" height="16.0369" rx="8.01845" transform="matrix(-1 0 0 1 259.375 235.213)" fill="#2A2E3C"/>
<rect width="24.0554" height="16.0369" rx="8.01845" transform="matrix(-1 0 0 1 213.82 235.213)" fill="#2A2E3C"/>
<rect width="43.6957" height="5.57817" rx="2.78908" transform="matrix(1 0 0 -1 201.734 113.423)" fill="white"/>
<mask id="mask6_70_27401" style="mask-type:alpha" maskUnits="userSpaceOnUse" x="149" y="114" width="76" height="57">
<path d="M179.307 150.952C186.92 136.956 238.835 124.861 221.467 118.166C201.987 103.311 167.99 131.235 151.718 153.923C147.648 159.597 150.571 167.106 157.076 169.648C162.715 171.852 169.114 169.529 172.026 164.22L179.307 150.952Z" fill="#66C7FF"/>
</mask>
<g mask="url(#mask6_70_27401)">
<path d="M179.307 150.952C186.92 136.956 238.835 124.861 221.467 118.166C201.987 103.311 167.99 131.235 151.718 153.923C147.648 159.597 150.571 167.106 157.076 169.648C162.715 171.852 169.114 169.529 172.026 164.22L179.307 150.952Z" fill="#0081CC"/>
<path d="M179.193 125.333L190.839 143.258C189.416 144.839 188.368 144.921 188.009 145.216L174.046 129.011C174.808 128.384 178.045 126.088 179.193 125.333Z" fill="white"/>
</g>
<rect width="18.4266" height="14.2526" rx="7.12631" transform="matrix(-0.890192 -0.455586 -0.455586 0.890192 170.563 161.47)" fill="#2A2E3C"/>
<mask id="mask7_70_27401" style="mask-type:alpha" maskUnits="userSpaceOnUse" x="231" y="111" width="62" height="63">
<path d="M263.823 154.378C256.621 140.68 223.396 114.638 232.666 114.576C251.247 99.9171 277.334 133.525 290.765 157.423C293.967 163.12 291.174 170.122 285.115 172.572C279.667 174.774 273.435 172.503 270.682 167.311L263.823 154.378Z" fill="#66C7FF"/>
</mask>
<g mask="url(#mask7_70_27401)">
<path d="M263.823 157.378C256.621 143.68 223.396 117.638 232.666 117.576C251.247 102.917 277.334 136.525 290.765 160.423C293.967 166.12 291.174 173.122 285.115 175.572C279.667 177.774 273.435 175.503 270.682 170.311L263.823 157.378Z" fill="#0081CC"/>
<path d="M252.347 143.329L268.834 129.589C270.546 131.434 270.66 131.758 270.978 132.066L256.36 147.818C255.686 147.165 253.179 144.339 252.347 143.329Z" fill="white"/>
</g>
<rect x="271.046" y="168.115" width="18.4266" height="14.2526" rx="7.12631" transform="rotate(-37.1004 271.046 168.115)" fill="#2A2E3C"/>
<ellipse cx="295.458" cy="196.453" rx="58.1135" ry="56.4531" fill="#33B4FF"/>
<ellipse cx="295.456" cy="192.103" rx="44.8304" ry="35.6983" fill="#1A1A1A"/>
<ellipse cx="284.076" cy="175.59" rx="32.8121" ry="17.4341" transform="rotate(-19.729 284.076 175.59)" fill="#989898" fill-opacity="0.1"/>
<ellipse cx="284.981" cy="174.009" rx="27.3882" ry="10.6434" transform="rotate(-19.729 284.981 174.009)" fill="#989898" fill-opacity="0.05"/>
<path d="M286.633 309.87C286.633 304.368 282.173 299.907 276.671 299.907H258.742V379.196C258.742 384.698 263.203 389.158 268.705 389.158H276.671C282.173 389.158 286.633 384.698 286.633 379.196V309.87Z" fill="#33B4FF"/>
<path d="M332.188 299.907H314.26C308.758 299.907 304.298 304.368 304.298 309.87V378.266C304.298 383.768 308.758 388.228 314.26 388.228H322.226C327.728 388.228 332.188 383.768 332.188 378.266V299.907Z" fill="#33B4FF"/>
<rect x="258.742" y="251.563" width="73.4459" height="81.8131" rx="27.8908" fill="#33B4FF"/>
<rect x="258.742" y="263.649" width="73.4459" height="71.5865" rx="35.7932" fill="#33B4FF"/>
<rect width="24.0554" height="16.0369" rx="8.01845" transform="matrix(-1 0 0 1 330.329 375.213)" fill="#2A2E3C"/>
<rect width="24.0554" height="16.0369" rx="8.01845" transform="matrix(-1 0 0 1 284.774 375.213)" fill="#2A2E3C"/>
<rect width="43.6957" height="5.57817" rx="2.78908" transform="matrix(1 0 0 -1 272.688 253.423)" fill="white"/>
<mask id="mask8_70_27401" style="mask-type:alpha" maskUnits="userSpaceOnUse" x="220" y="254" width="76" height="57">
<path d="M250.261 290.952C257.874 276.956 309.789 264.861 292.421 258.166C272.941 243.311 238.944 271.235 222.672 293.923C218.602 299.597 221.525 307.106 228.03 309.648C233.669 311.852 240.068 309.529 242.981 304.22L250.261 290.952Z" fill="#66C7FF"/>
</mask>
<g mask="url(#mask8_70_27401)">
<path d="M250.261 290.952C257.874 276.956 309.789 264.861 292.421 258.166C272.941 243.311 238.944 271.235 222.672 293.923C218.602 299.597 221.525 307.106 228.03 309.648C233.669 311.852 240.068 309.529 242.981 304.22L250.261 290.952Z" fill="#33B4FF"/>
<path d="M250.147 265.333L261.793 283.258C260.37 284.839 259.322 284.921 258.963 285.216L245 269.011C245.762 268.384 248.999 266.088 250.147 265.333Z" fill="white"/>
</g>
<rect width="18.4266" height="14.2526" rx="7.12631" transform="matrix(-0.890192 -0.455586 -0.455586 0.890192 241.518 301.47)" fill="#2A2E3C"/>
<mask id="mask9_70_27401" style="mask-type:alpha" maskUnits="userSpaceOnUse" x="302" y="251" width="62" height="63">
<path d="M334.777 294.378C327.575 280.68 294.35 254.638 303.62 254.576C322.201 239.917 348.288 273.525 361.719 297.423C364.921 303.12 362.128 310.122 356.069 312.572C350.621 314.774 344.389 312.503 341.636 307.311L334.777 294.378Z" fill="#66C7FF"/>
</mask>
<g mask="url(#mask9_70_27401)">
<path d="M334.777 297.378C327.575 283.68 294.35 257.638 303.62 257.576C322.201 242.917 348.288 276.525 361.719 300.423C364.921 306.12 362.128 313.122 356.069 315.572C350.621 317.774 344.389 315.503 341.636 310.311L334.777 297.378Z" fill="#33B4FF"/>
<path d="M323.302 283.329L339.788 269.589C341.5 271.434 341.614 271.758 341.932 272.066L327.314 287.818C326.64 287.165 324.133 284.339 323.302 283.329Z" fill="white"/>
</g>
<rect x="342" y="308.115" width="18.4266" height="14.2526" rx="7.12631" transform="rotate(-37.1004 342 308.115)" fill="#2A2E3C"/>
<ellipse cx="77.4578" cy="56.4531" rx="58.1135" ry="56.4531" fill="#0081CC"/>
<ellipse cx="77.4564" cy="52.1031" rx="44.8304" ry="35.6983" fill="#1A1A1A"/>
<ellipse cx="66.0759" cy="35.5901" rx="32.8121" ry="17.4341" transform="rotate(-19.729 66.0759 35.5901)" fill="#989898" fill-opacity="0.1"/>
<ellipse cx="66.9808" cy="34.0085" rx="27.3882" ry="10.6434" transform="rotate(-19.729 66.9808 34.0085)" fill="#989898" fill-opacity="0.05"/>
<path d="M68.6333 169.87C68.6333 164.368 64.173 159.907 58.671 159.907H40.7425V239.196C40.7425 244.698 45.2027 249.158 50.7048 249.158H58.671C64.173 249.158 68.6333 244.698 68.6333 239.196V169.87Z" fill="#0081CC"/>
<path d="M114.188 159.907H96.2599C90.7579 159.907 86.2976 164.368 86.2976 169.87V238.266C86.2976 243.768 90.7579 248.228 96.26 248.228H104.226C109.728 248.228 114.188 243.768 114.188 238.266V159.907Z" fill="#0081CC"/>
<rect x="40.7422" y="111.563" width="73.4459" height="81.8131" rx="27.8908" fill="#0081CC"/>
<rect x="40.7422" y="123.649" width="73.4459" height="71.5865" rx="35.7932" fill="#0081CC"/>
<rect width="24.0554" height="16.0369" rx="8.01845" transform="matrix(-1 0 0 1 112.329 235.213)" fill="#2A2E3C"/>
<rect width="24.0554" height="16.0369" rx="8.01845" transform="matrix(-1 0 0 1 66.7739 235.213)" fill="#2A2E3C"/>
<rect width="43.6957" height="5.57817" rx="2.78908" transform="matrix(1 0 0 -1 54.688 113.423)" fill="white"/>
<mask id="mask10_70_27401" style="mask-type:alpha" maskUnits="userSpaceOnUse" x="2" y="114" width="76" height="57">
<path d="M32.2606 150.952C39.874 136.956 91.7894 124.861 74.4211 118.166C54.9406 103.311 20.9444 131.235 4.67249 153.923C0.602356 159.597 3.52512 167.106 10.0297 169.648C15.6692 171.852 22.0681 169.529 24.9805 164.22L32.2606 150.952Z" fill="#66C7FF"/>
</mask>
<g mask="url(#mask10_70_27401)">
<path d="M32.2606 150.952C39.874 136.956 91.7894 124.861 74.4211 118.166C54.9406 103.311 20.9444 131.235 4.67249 153.923C0.602356 159.597 3.52512 167.106 10.0297 169.648C15.6692 171.852 22.0681 169.529 24.9805 164.22L32.2606 150.952Z" fill="#0081CC"/>
<path d="M32.1473 125.333L43.7932 143.258C42.3702 144.839 41.3223 144.921 40.9634 145.216L27.0005 129.011C27.7618 128.384 30.9992 126.088 32.1473 125.333Z" fill="white"/>
</g>
<rect width="18.4266" height="14.2526" rx="7.12631" transform="matrix(-0.890192 -0.455586 -0.455586 0.890192 23.5176 161.47)" fill="#2A2E3C"/>
<mask id="mask11_70_27401" style="mask-type:alpha" maskUnits="userSpaceOnUse" x="84" y="111" width="62" height="63">
<path d="M116.777 154.378C109.575 140.68 76.3497 114.638 85.62 114.576C104.201 99.9171 130.288 133.525 143.719 157.423C146.921 163.12 144.128 170.122 138.069 172.572C132.621 174.774 126.389 172.503 123.636 167.311L116.777 154.378Z" fill="#66C7FF"/>
</mask>
<g mask="url(#mask11_70_27401)">
<path d="M116.777 157.378C109.575 143.68 76.3497 117.638 85.62 117.576C104.201 102.917 130.288 136.525 143.719 160.423C146.921 166.12 144.128 173.122 138.069 175.572C132.621 177.774 126.389 175.503 123.636 170.311L116.777 157.378Z" fill="#0081CC"/>
<path d="M105.302 143.329L121.788 129.589C123.5 131.434 123.614 131.758 123.932 132.066L109.314 147.818C108.64 147.165 106.133 144.339 105.302 143.329Z" fill="white"/>
</g>
<rect x="124" y="168.115" width="18.4266" height="14.2526" rx="7.12631" transform="rotate(-37.1004 124 168.115)" fill="#2A2E3C"/>
<ellipse cx="140.458" cy="196.453" rx="58.1135" ry="56.4531" fill="#33B4FF"/>
<ellipse cx="140.456" cy="192.103" rx="44.8304" ry="35.6983" fill="#1A1A1A"/>
<ellipse cx="129.076" cy="175.59" rx="32.8121" ry="17.4341" transform="rotate(-19.729 129.076 175.59)" fill="#989898" fill-opacity="0.1"/>
<ellipse cx="129.981" cy="174.009" rx="27.3882" ry="10.6434" transform="rotate(-19.729 129.981 174.009)" fill="#989898" fill-opacity="0.05"/>
<path d="M131.633 309.87C131.633 304.368 127.173 299.907 121.671 299.907H103.742V379.196C103.742 384.698 108.203 389.158 113.705 389.158H121.671C127.173 389.158 131.633 384.698 131.633 379.196V309.87Z" fill="#33B4FF"/>
<path d="M177.188 299.907H159.26C153.758 299.907 149.298 304.368 149.298 309.87V378.266C149.298 383.768 153.758 388.228 159.26 388.228H167.226C172.728 388.228 177.188 383.768 177.188 378.266V299.907Z" fill="#33B4FF"/>
<rect x="103.742" y="251.563" width="73.4459" height="81.8131" rx="27.8908" fill="#33B4FF"/>
<rect x="103.742" y="263.649" width="73.4459" height="71.5865" rx="35.7932" fill="#33B4FF"/>
<rect width="24.0554" height="16.0369" rx="8.01845" transform="matrix(-1 0 0 1 175.329 375.213)" fill="#2A2E3C"/>
<rect width="24.0554" height="16.0369" rx="8.01845" transform="matrix(-1 0 0 1 129.774 375.213)" fill="#2A2E3C"/>
<rect width="43.6957" height="5.57817" rx="2.78908" transform="matrix(1 0 0 -1 117.688 253.423)" fill="white"/>
<mask id="mask12_70_27401" style="mask-type:alpha" maskUnits="userSpaceOnUse" x="65" y="254" width="76" height="57">
<path d="M95.2606 290.952C102.874 276.956 154.789 264.861 137.421 258.166C117.941 243.311 83.9444 271.235 67.6725 293.923C63.6024 299.597 66.5251 307.106 73.0297 309.648C78.6692 311.852 85.0681 309.529 87.9805 304.22L95.2606 290.952Z" fill="#66C7FF"/>
</mask>
<g mask="url(#mask12_70_27401)">
<path d="M95.2606 290.952C102.874 276.956 154.789 264.861 137.421 258.166C117.941 243.311 83.9444 271.235 67.6725 293.923C63.6024 299.597 66.5251 307.106 73.0297 309.648C78.6692 311.852 85.0681 309.529 87.9805 304.22L95.2606 290.952Z" fill="#33B4FF"/>
<path d="M95.1473 265.333L106.793 283.258C105.37 284.839 104.322 284.921 103.963 285.216L90.0005 269.011C90.7618 268.384 93.9992 266.088 95.1473 265.333Z" fill="white"/>
</g>
<rect width="18.4266" height="14.2526" rx="7.12631" transform="matrix(-0.890192 -0.455586 -0.455586 0.890192 86.5176 301.47)" fill="#2A2E3C"/>
<mask id="mask13_70_27401" style="mask-type:alpha" maskUnits="userSpaceOnUse" x="147" y="251" width="62" height="63">
<path d="M179.777 294.378C172.575 280.68 139.35 254.638 148.62 254.576C167.201 239.917 193.288 273.525 206.719 297.423C209.921 303.12 207.128 310.122 201.069 312.572C195.621 314.774 189.389 312.503 186.636 307.311L179.777 294.378Z" fill="#66C7FF"/>
</mask>
<g mask="url(#mask13_70_27401)">
<path d="M179.777 297.378C172.575 283.68 139.35 257.638 148.62 257.576C167.201 242.917 193.288 276.525 206.719 300.423C209.921 306.12 207.128 313.122 201.069 315.572C195.621 317.774 189.389 315.503 186.636 310.311L179.777 297.378Z" fill="#33B4FF"/>
<path d="M168.302 283.329L184.788 269.589C186.5 271.434 186.614 271.758 186.932 272.066L172.314 287.818C171.64 287.165 169.133 284.339 168.302 283.329Z" fill="white"/>
</g>
<rect x="187" y="308.115" width="18.4266" height="14.2526" rx="7.12631" transform="rotate(-37.1004 187 308.115)" fill="#2A2E3C"/>
<ellipse rx="58.1135" ry="56.4531" transform="matrix(-1 0 0 1 216.496 321.453)" fill="#66C7FF"/>
<ellipse rx="44.8304" ry="35.6983" transform="matrix(-1 0 0 1 216.498 317.103)" fill="#1A1A1A"/>
<ellipse rx="32.8121" ry="17.4341" transform="matrix(-0.9413 -0.337572 -0.337572 0.9413 227.878 300.59)" fill="#989898" fill-opacity="0.1"/>
<ellipse rx="27.3882" ry="10.6434" transform="matrix(-0.9413 -0.337572 -0.337572 0.9413 226.973 299.009)" fill="#989898" fill-opacity="0.05"/>
<path d="M225.321 434.87C225.321 429.368 229.781 424.907 235.283 424.907H253.212V504.196C253.212 509.698 248.751 514.158 243.249 514.158H235.283C229.781 514.158 225.321 509.698 225.321 504.196V434.87Z" fill="#66C7FF"/>
<path d="M179.766 424.907H197.694C203.196 424.907 207.656 429.368 207.656 434.87V503.266C207.656 508.768 203.196 513.228 197.694 513.228H189.728C184.226 513.228 179.766 508.768 179.766 503.266V424.907Z" fill="#66C7FF"/>
<rect width="73.4459" height="81.8131" rx="27.8908" transform="matrix(-1 0 0 1 253.212 376.563)" fill="#66C7FF"/>
<rect width="73.4459" height="71.5865" rx="35.7932" transform="matrix(-1 0 0 1 253.212 388.649)" fill="#66C7FF"/>
<rect x="181.625" y="500.213" width="24.0554" height="16.0369" rx="8.01845" fill="#2A2E3C"/>
<rect x="227.18" y="500.213" width="24.0554" height="16.0369" rx="8.01845" fill="#2A2E3C"/>
<rect x="239.266" y="378.423" width="43.6957" height="5.57817" rx="2.78908" transform="rotate(-180 239.266 378.423)" fill="white"/>
<mask id="mask14_70_27401" style="mask-type:alpha" maskUnits="userSpaceOnUse" x="125" y="359" width="86" height="39">
<path d="M157.148 371.756C169.37 381.977 222.099 374.157 208.403 386.764C195.741 407.736 153.864 394.251 130.397 379.127C124.527 375.343 124.487 367.286 129.603 362.533C134.039 358.412 140.844 358.222 145.503 362.089L157.148 371.756Z" fill="#66C7FF"/>
</mask>
<g mask="url(#mask14_70_27401)">
<path d="M157.148 371.756C169.37 381.977 222.099 374.157 208.403 386.764C195.741 407.736 153.864 394.251 130.397 379.127C124.527 375.343 124.487 367.286 129.603 362.533C134.039 358.412 140.844 358.222 145.503 362.089L157.148 371.756Z" fill="#66C7FF"/>
<path d="M166.452 395.626L170.7 374.676C168.796 373.728 167.791 374.037 167.349 373.894L160.314 394.096C161.253 394.399 165.107 395.346 166.452 395.626Z" fill="white"/>
</g>
<mask id="mask15_70_27401" style="mask-type:alpha" maskUnits="userSpaceOnUse" x="216" y="379" width="76" height="57">
<path d="M261.693 415.952C254.08 401.956 202.165 389.861 219.533 383.166C239.013 368.311 273.01 396.235 289.282 418.923C293.352 424.597 290.429 432.106 283.924 434.648C278.285 436.852 271.886 434.529 268.974 429.22L261.693 415.952Z" fill="#66C7FF"/>
</mask>
<g mask="url(#mask15_70_27401)">
<path d="M261.693 415.952C254.08 401.956 202.165 389.861 219.533 383.166C239.013 368.311 273.01 396.235 289.282 418.923C293.352 424.597 290.429 432.106 283.924 434.648C278.285 436.852 271.886 434.529 268.974 429.22L261.693 415.952Z" fill="#66C7FF"/>
<path d="M261.807 390.333L250.161 408.258C251.584 409.839 252.632 409.921 252.991 410.216L266.954 394.011C266.192 393.384 262.955 391.088 261.807 390.333Z" fill="white"/>
</g>
<rect x="270.437" y="426.47" width="18.4266" height="14.2526" rx="7.12631" transform="rotate(-27.1026 270.437 426.47)" fill="#2A2E3C"/>
<rect width="18.4266" height="14.2526" rx="7.12631" transform="matrix(-0.629875 0.776697 0.776697 0.629875 128.606 353)" fill="#2A2E3C"/>
<ellipse cx="371.458" cy="321.453" rx="58.1135" ry="56.4531" fill="#66C7FF"/>
<ellipse cx="371.456" cy="317.103" rx="44.8304" ry="35.6983" fill="#1A1A1A"/>
<ellipse cx="360.076" cy="300.59" rx="32.8121" ry="17.4341" transform="rotate(-19.729 360.076 300.59)" fill="#989898" fill-opacity="0.1"/>
<ellipse cx="360.981" cy="299.009" rx="27.3882" ry="10.6434" transform="rotate(-19.729 360.981 299.009)" fill="#989898" fill-opacity="0.05"/>
<path d="M362.633 434.87C362.633 429.368 358.173 424.907 352.671 424.907H334.742V504.196C334.742 509.698 339.203 514.158 344.705 514.158H352.671C358.173 514.158 362.633 509.698 362.633 504.196V434.87Z" fill="#66C7FF"/>
<path d="M408.188 424.907H390.26C384.758 424.907 380.298 429.368 380.298 434.87V503.266C380.298 508.768 384.758 513.228 390.26 513.228H398.226C403.728 513.228 408.188 508.768 408.188 503.266V424.907Z" fill="#66C7FF"/>
<rect x="334.742" y="376.563" width="73.4459" height="81.8131" rx="27.8908" fill="#66C7FF"/>
<rect x="334.742" y="388.649" width="73.4459" height="71.5865" rx="35.7932" fill="#66C7FF"/>
<rect width="24.0554" height="16.0369" rx="8.01845" transform="matrix(-1 0 0 1 406.329 500.213)" fill="#2A2E3C"/>
<rect width="24.0554" height="16.0369" rx="8.01845" transform="matrix(-1 0 0 1 360.774 500.213)" fill="#2A2E3C"/>
<rect width="43.6957" height="5.57817" rx="2.78908" transform="matrix(1 0 0 -1 348.688 378.423)" fill="white"/>
<mask id="mask16_70_27401" style="mask-type:alpha" maskUnits="userSpaceOnUse" x="377" y="359" width="86" height="39">
<path d="M430.807 371.756C418.585 381.977 365.856 374.157 379.551 386.764C392.213 407.736 434.09 394.251 457.557 379.127C463.428 375.343 463.467 367.286 458.351 362.533C453.915 358.412 447.11 358.222 442.451 362.089L430.807 371.756Z" fill="#66C7FF"/>
</mask>
<g mask="url(#mask16_70_27401)">
<path d="M430.807 371.756C418.585 381.977 365.856 374.157 379.551 386.764C392.213 407.736 434.09 394.251 457.557 379.127C463.428 375.343 463.467 367.286 458.351 362.533C453.915 358.412 447.11 358.222 442.451 362.089L430.807 371.756Z" fill="#66C7FF"/>
<path d="M421.502 395.626L417.254 374.676C419.158 373.728 420.163 374.037 420.605 373.894L427.64 394.096C426.701 394.399 422.847 395.346 421.502 395.626Z" fill="white"/>
</g>
<mask id="mask17_70_27401" style="mask-type:alpha" maskUnits="userSpaceOnUse" x="296" y="379" width="76" height="57">
<path d="M326.261 415.952C333.874 401.956 385.789 389.861 368.421 383.166C348.941 368.311 314.944 396.235 298.672 418.923C294.602 424.597 297.525 432.106 304.03 434.648C309.669 436.852 316.068 434.529 318.981 429.22L326.261 415.952Z" fill="#66C7FF"/>
</mask>
<g mask="url(#mask17_70_27401)">
<path d="M326.261 415.952C333.874 401.956 385.789 389.861 368.421 383.166C348.941 368.311 314.944 396.235 298.672 418.923C294.602 424.597 297.525 432.106 304.03 434.648C309.669 436.852 316.068 434.529 318.981 429.22L326.261 415.952Z" fill="#66C7FF"/>
<path d="M326.147 390.333L337.793 408.258C336.37 409.839 335.322 409.921 334.963 410.216L321 394.011C321.762 393.384 324.999 391.088 326.147 390.333Z" fill="white"/>
</g>
<rect width="18.4266" height="14.2526" rx="7.12631" transform="matrix(-0.890192 -0.455586 -0.455586 0.890192 317.518 426.47)" fill="#2A2E3C"/>
<rect x="459.348" y="353" width="18.4266" height="14.2526" rx="7.12631" transform="rotate(50.9591 459.348 353)" fill="#2A2E3C"/>
</svg>
