<svg width="350" height="377" viewBox="0 0 350 377" fill="none" xmlns="http://www.w3.org/2000/svg">
<ellipse cx="176.458" cy="56.4531" rx="58.1135" ry="56.4531" fill="#33B4FF"/>
<ellipse cx="176.456" cy="52.1031" rx="44.8304" ry="35.6983" fill="#1A1A1A"/>
<ellipse cx="165.076" cy="35.5901" rx="32.8121" ry="17.4341" transform="rotate(-19.729 165.076 35.5901)" fill="#989898" fill-opacity="0.1"/>
<ellipse cx="165.981" cy="34.0085" rx="27.3882" ry="10.6434" transform="rotate(-19.729 165.981 34.0085)" fill="#989898" fill-opacity="0.05"/>
<path d="M167.633 169.87C167.633 164.368 163.173 159.907 157.671 159.907H139.742V239.196C139.742 244.698 144.203 249.158 149.705 249.158H157.671C163.173 249.158 167.633 244.698 167.633 239.196V169.87Z" fill="#33B4FF"/>
<path d="M213.188 159.907H195.26C189.758 159.907 185.298 164.368 185.298 169.87V238.266C185.298 243.768 189.758 248.228 195.26 248.228H203.226C208.728 248.228 213.188 243.768 213.188 238.266V159.907Z" fill="#33B4FF"/>
<rect x="139.742" y="111.563" width="73.4459" height="81.8131" rx="27.8908" fill="#33B4FF"/>
<rect x="139.742" y="123.649" width="73.4459" height="71.5865" rx="35.7932" fill="#33B4FF"/>
<rect width="24.0554" height="16.0369" rx="8.01845" transform="matrix(-1 0 0 1 211.329 235.213)" fill="#2A2E3C"/>
<rect width="24.0554" height="16.0369" rx="8.01845" transform="matrix(-1 0 0 1 165.774 235.213)" fill="#2A2E3C"/>
<rect width="43.6957" height="5.57817" rx="2.78908" transform="matrix(1 0 0 -1 153.688 113.423)" fill="white"/>
<mask id="mask0_70_25060" style="mask-type:alpha" maskUnits="userSpaceOnUse" x="101" y="114" width="76" height="57">
<path d="M131.261 150.952C138.874 136.956 190.789 124.861 173.421 118.166C153.941 103.311 119.944 131.235 103.672 153.923C99.6024 159.597 102.525 167.106 109.03 169.648C114.669 171.852 121.068 169.529 123.981 164.22L131.261 150.952Z" fill="#66C7FF"/>
</mask>
<g mask="url(#mask0_70_25060)">
<path d="M131.261 150.952C138.874 136.956 190.789 124.861 173.421 118.166C153.941 103.311 119.944 131.235 103.672 153.923C99.6024 159.597 102.525 167.106 109.03 169.648C114.669 171.852 121.068 169.529 123.981 164.22L131.261 150.952Z" fill="#33B4FF"/>
<path d="M131.147 125.333L142.793 143.258C141.37 144.839 140.322 144.921 139.963 145.216L126 129.011C126.762 128.384 129.999 126.088 131.147 125.333Z" fill="white"/>
</g>
<rect width="18.4266" height="14.2526" rx="7.12631" transform="matrix(-0.890192 -0.455586 -0.455586 0.890192 122.518 161.47)" fill="#2A2E3C"/>
<mask id="mask1_70_25060" style="mask-type:alpha" maskUnits="userSpaceOnUse" x="183" y="111" width="62" height="63">
<path d="M215.777 154.378C208.575 140.68 175.35 114.638 184.62 114.576C203.201 99.9171 229.288 133.525 242.719 157.423C245.921 163.12 243.128 170.122 237.069 172.572C231.621 174.774 225.389 172.503 222.636 167.311L215.777 154.378Z" fill="#66C7FF"/>
</mask>
<g mask="url(#mask1_70_25060)">
<path d="M215.777 157.378C208.575 143.68 175.35 117.638 184.62 117.576C203.201 102.917 229.288 136.525 242.719 160.423C245.921 166.12 243.128 173.122 237.069 175.572C231.621 177.774 225.389 175.503 222.636 170.311L215.777 157.378Z" fill="#33B4FF"/>
<path d="M204.302 143.329L220.788 129.589C222.5 131.434 222.614 131.758 222.932 132.066L208.314 147.818C207.64 147.165 205.133 144.339 204.302 143.329Z" fill="white"/>
</g>
<rect x="223" y="168.115" width="18.4266" height="14.2526" rx="7.12631" transform="rotate(-37.1004 223 168.115)" fill="#2A2E3C"/>
<ellipse rx="58.1135" ry="56.4531" transform="matrix(-1 0 0 1 97.4963 181.453)" fill="#66C7FF"/>
<ellipse rx="44.8304" ry="35.6983" transform="matrix(-1 0 0 1 97.4977 177.103)" fill="#1A1A1A"/>
<ellipse rx="32.8121" ry="17.4341" transform="matrix(-0.9413 -0.337572 -0.337572 0.9413 108.878 160.59)" fill="#989898" fill-opacity="0.1"/>
<ellipse rx="27.3882" ry="10.6434" transform="matrix(-0.9413 -0.337572 -0.337572 0.9413 107.973 159.009)" fill="#989898" fill-opacity="0.05"/>
<path d="M106.321 294.87C106.321 289.368 110.781 284.907 116.283 284.907H134.212V364.196C134.212 369.698 129.751 374.158 124.249 374.158H116.283C110.781 374.158 106.321 369.698 106.321 364.196V294.87Z" fill="#66C7FF"/>
<path d="M60.7656 284.907H78.6942C84.1962 284.907 88.6565 289.368 88.6565 294.87V363.266C88.6565 368.768 84.1962 373.228 78.6941 373.228H70.7279C65.2259 373.228 60.7656 368.768 60.7656 363.266V284.907Z" fill="#66C7FF"/>
<rect width="73.4459" height="81.8131" rx="27.8908" transform="matrix(-1 0 0 1 134.212 236.563)" fill="#66C7FF"/>
<rect width="73.4459" height="71.5865" rx="35.7932" transform="matrix(-1 0 0 1 134.212 248.649)" fill="#66C7FF"/>
<rect x="62.625" y="360.213" width="24.0554" height="16.0369" rx="8.01845" fill="#2A2E3C"/>
<rect x="108.18" y="360.213" width="24.0554" height="16.0369" rx="8.01845" fill="#2A2E3C"/>
<rect x="120.266" y="238.423" width="43.6957" height="5.57817" rx="2.78908" transform="rotate(-180 120.266 238.423)" fill="white"/>
<mask id="mask2_70_25060" style="mask-type:alpha" maskUnits="userSpaceOnUse" x="6" y="219" width="86" height="39">
<path d="M38.1475 231.756C50.3695 241.977 103.099 234.157 89.4034 246.764C76.741 267.736 34.8644 254.251 11.3967 239.127C5.52659 235.343 5.48695 227.286 10.6033 222.533C15.0391 218.412 21.844 218.222 26.5026 222.089L38.1475 231.756Z" fill="#66C7FF"/>
</mask>
<g mask="url(#mask2_70_25060)">
<path d="M38.1475 231.756C50.3695 241.977 103.099 234.157 89.4034 246.764C76.741 267.736 34.8644 254.251 11.3967 239.127C5.52659 235.343 5.48695 227.286 10.6033 222.533C15.0391 218.412 21.844 218.222 26.5026 222.089L38.1475 231.756Z" fill="#66C7FF"/>
<path d="M47.4525 255.626L51.7001 234.676C49.7958 233.728 48.7912 234.037 48.3489 233.894L41.3145 254.096C42.2527 254.399 46.1074 255.346 47.4525 255.626Z" fill="white"/>
</g>
<mask id="mask3_70_25060" style="mask-type:alpha" maskUnits="userSpaceOnUse" x="97" y="239" width="76" height="57">
<path d="M142.693 275.952C135.08 261.956 83.1647 249.861 100.533 243.166C120.013 228.311 154.01 256.235 170.282 278.923C174.352 284.597 171.429 292.106 164.924 294.648C159.285 296.852 152.886 294.529 149.974 289.22L142.693 275.952Z" fill="#66C7FF"/>
</mask>
<g mask="url(#mask3_70_25060)">
<path d="M142.693 275.952C135.08 261.956 83.1647 249.861 100.533 243.166C120.013 228.311 154.01 256.235 170.282 278.923C174.352 284.597 171.429 292.106 164.924 294.648C159.285 296.852 152.886 294.529 149.974 289.22L142.693 275.952Z" fill="#66C7FF"/>
<path d="M142.807 250.333L131.161 268.258C132.584 269.839 133.632 269.921 133.991 270.216L147.954 254.011C147.192 253.384 143.955 251.088 142.807 250.333Z" fill="white"/>
</g>
<rect x="151.437" y="286.47" width="18.4266" height="14.2526" rx="7.12631" transform="rotate(-27.1026 151.437 286.47)" fill="#2A2E3C"/>
<rect width="18.4266" height="14.2526" rx="7.12631" transform="matrix(-0.629875 0.776697 0.776697 0.629875 9.60645 213)" fill="#2A2E3C"/>
<ellipse cx="252.458" cy="181.453" rx="58.1135" ry="56.4531" fill="#66C7FF"/>
<ellipse cx="252.456" cy="177.103" rx="44.8304" ry="35.6983" fill="#1A1A1A"/>
<ellipse cx="241.076" cy="160.59" rx="32.8121" ry="17.4341" transform="rotate(-19.729 241.076 160.59)" fill="#989898" fill-opacity="0.1"/>
<ellipse cx="241.981" cy="159.009" rx="27.3882" ry="10.6434" transform="rotate(-19.729 241.981 159.009)" fill="#989898" fill-opacity="0.05"/>
<path d="M243.633 294.87C243.633 289.368 239.173 284.907 233.671 284.907H215.742V364.196C215.742 369.698 220.203 374.158 225.705 374.158H233.671C239.173 374.158 243.633 369.698 243.633 364.196V294.87Z" fill="#66C7FF"/>
<path d="M289.188 284.907H271.26C265.758 284.907 261.298 289.368 261.298 294.87V363.266C261.298 368.768 265.758 373.228 271.26 373.228H279.226C284.728 373.228 289.188 368.768 289.188 363.266V284.907Z" fill="#66C7FF"/>
<rect x="215.742" y="236.563" width="73.4459" height="81.8131" rx="27.8908" fill="#66C7FF"/>
<rect x="215.742" y="248.649" width="73.4459" height="71.5865" rx="35.7932" fill="#66C7FF"/>
<rect width="24.0554" height="16.0369" rx="8.01845" transform="matrix(-1 0 0 1 287.329 360.213)" fill="#2A2E3C"/>
<rect width="24.0554" height="16.0369" rx="8.01845" transform="matrix(-1 0 0 1 241.774 360.213)" fill="#2A2E3C"/>
<rect width="43.6957" height="5.57817" rx="2.78908" transform="matrix(1 0 0 -1 229.688 238.423)" fill="white"/>
<mask id="mask4_70_25060" style="mask-type:alpha" maskUnits="userSpaceOnUse" x="258" y="219" width="86" height="39">
<path d="M311.807 231.756C299.585 241.977 246.856 234.157 260.551 246.764C273.213 267.736 315.09 254.251 338.557 239.127C344.428 235.343 344.467 227.286 339.351 222.533C334.915 218.412 328.11 218.222 323.451 222.089L311.807 231.756Z" fill="#66C7FF"/>
</mask>
<g mask="url(#mask4_70_25060)">
<path d="M311.807 231.756C299.585 241.977 246.856 234.157 260.551 246.764C273.213 267.736 315.09 254.251 338.557 239.127C344.428 235.343 344.467 227.286 339.351 222.533C334.915 218.412 328.11 218.222 323.451 222.089L311.807 231.756Z" fill="#66C7FF"/>
<path d="M302.502 255.626L298.254 234.676C300.158 233.728 301.163 234.037 301.605 233.894L308.64 254.096C307.701 254.399 303.847 255.346 302.502 255.626Z" fill="white"/>
</g>
<mask id="mask5_70_25060" style="mask-type:alpha" maskUnits="userSpaceOnUse" x="177" y="239" width="76" height="57">
<path d="M207.261 275.952C214.874 261.956 266.789 249.861 249.421 243.166C229.941 228.311 195.944 256.235 179.672 278.923C175.602 284.597 178.525 292.106 185.03 294.648C190.669 296.852 197.068 294.529 199.981 289.22L207.261 275.952Z" fill="#66C7FF"/>
</mask>
<g mask="url(#mask5_70_25060)">
<path d="M207.261 275.952C214.874 261.956 266.789 249.861 249.421 243.166C229.941 228.311 195.944 256.235 179.672 278.923C175.602 284.597 178.525 292.106 185.03 294.648C190.669 296.852 197.068 294.529 199.981 289.22L207.261 275.952Z" fill="#66C7FF"/>
<path d="M207.147 250.333L218.793 268.258C217.37 269.839 216.322 269.921 215.963 270.216L202 254.011C202.762 253.384 205.999 251.088 207.147 250.333Z" fill="white"/>
</g>
<rect width="18.4266" height="14.2526" rx="7.12631" transform="matrix(-0.890192 -0.455586 -0.455586 0.890192 198.518 286.47)" fill="#2A2E3C"/>
<rect x="340.348" y="213" width="18.4266" height="14.2526" rx="7.12631" transform="rotate(50.9591 340.348 213)" fill="#2A2E3C"/>
</svg>
